<svg width="32" height="32" viewBox="0 0 32 32" fill="none" xmlns="http://www.w3.org/2000/svg">
<path d="M16 16L16.4685 15.4143L16 15.0395L15.5315 15.4143L16 16ZM21 20H21.75V19.6395L21.4685 19.4143L21 20ZM11 20L10.5315 19.4143L10.25 19.6395V20H11ZM11 25H10.25V25.75H11V25ZM21 25V25.75H21.75V25H21ZM15.5315 16.5857L20.5315 20.5857L21.4685 19.4143L16.4685 15.4143L15.5315 16.5857ZM11.4685 20.5857L16.4685 16.5857L15.5315 15.4143L10.5315 19.4143L11.4685 20.5857ZM11.75 25V20H10.25V25H11.75ZM21 24.25H11V25.75H21V24.25ZM20.25 20V25H21.75V20H20.25Z" fill="#6E6E6E"/>
<path d="M16 15L16.4685 15.5857L16 15.9605L15.5315 15.5857L16 15ZM21 11H21.75V11.3605L21.4685 11.5857L21 11ZM11 11L10.5315 11.5857L10.25 11.3605V11H11ZM11 6H10.25V5.25H11V6ZM21 6V5.25H21.75V6H21ZM15.5315 14.4143L20.5315 10.4143L21.4685 11.5857L16.4685 15.5857L15.5315 14.4143ZM11.4685 10.4143L16.4685 14.4143L15.5315 15.5857L10.5315 11.5857L11.4685 10.4143ZM11.75 6V11H10.25V6H11.75ZM21 6.75H11V5.25H21V6.75ZM20.25 11V6H21.75V11H20.25Z" fill="#6E6E6E"/>
</svg>
